# xmcd
#
# Track frame offsets:
#	150
#	13941
#	32693
#	45882
#	62202
#	77428
#	93978
#	115415
#	130526
#	153083
#	166874
#	185626
#	198815
#	215135
#	230361
#	246911
#	268348
#	283459
#
# Disc length: 4080
#
# Revision: 2
# Processed by: cddbd v1.5.2PL0 Copyright (c) Steve Scherf et al.
# Submitted via: kJams Pro 1.0b99
#
DISCID=f80fee12
DTITLE=Various Artist - NSC 3036
DYEAR=2004
DGENRE=Karaoke
TTITLE0=Shania Twain - Up
TTITLE1=Keith Urban - Raining On Sunday
TTITLE2=Tammy Cochran - Love Won't Let Me
TTITLE3=Montgomery Gentry - Speed
TTITLE4=Randy Travis - Three Wooden Crosses
TTITLE5=Jessica Andrews - There's More To Me Than You
TTITLE6=Craig Morgan - Almost Home
TTITLE7=Pinmonkey - I Drove All Night
TTITLE8=Kid Rock - Sheryl Crow § Picture
TTITLE9=Shania Twain – Vocals - Up
TTITLE10=Keith Urban – Vocals - Raining On Sunday
TTITLE11=Tammy Cochran – Vocals - Love Won't Let Me
TTITLE12=Montgomery Gentry – Vocals - Speed
TTITLE13=Randy Travis – Vocals - Three Wooden Crosses
TTITLE14=Jessica Andrews – Vocals - There's More To Me Than You
TTITLE15=Craig Morgan – Vocals - Almost Home
TTITLE16=Pinmonkey – Vocals - I Drove All Night
TTITLE17=Kid Rock§Sheryl Crow– Vocals - Picture
EXTD=
EXTT0=
EXTT1=
EXTT2=
EXTT3=
EXTT4=
EXTT5=
EXTT6=
EXTT7=
EXTT8=
EXTT9=
EXTT10=
EXTT11=
EXTT12=
EXTT13=
EXTT14=
EXTT15=
EXTT16=
EXTT17=
PLAYORDER=
